<svg width="127" height="100" viewBox="0 0 127 100" fill="none" xmlns="http://www.w3.org/2000/svg">
<path d="M63.0682 75L71.3068 66.7614L60.5114 55.9659L52.2727 64.2045V68.1818H59.0909V75H63.0682ZM94.3182 23.8636C93.5606 23.1061 92.7794 23.1297 91.9744 23.9347L67.1165 48.7926C66.3116 49.5975 66.2879 50.3788 67.0455 51.1364C67.803 51.8939 68.5843 51.8703 69.3892 51.0653L94.2472 26.2074C95.0521 25.4025 95.0758 24.6212 94.3182 23.8636ZM100 66.0511V79.5455C100 85.1799 97.9995 89.9976 93.9986 93.9986C89.9976 97.9995 85.1799 100 79.5455 100H20.4545C14.8201 100 10.0024 97.9995 6.00142 93.9986C2.00047 89.9976 0 85.1799 0 79.5455V20.4545C0 14.8201 2.00047 10.0024 6.00142 6.00142C10.0024 2.00047 14.8201 0 20.4545 0H79.5455C82.5284 0 85.2983 0.591856 87.8551 1.77557C88.5653 2.10701 88.9915 2.65152 89.1335 3.40909C89.2756 4.21402 89.0625 4.90057 88.4943 5.46875L85.0142 8.94886C84.3513 9.61174 83.5938 9.80114 82.7415 9.51705C81.6525 9.23295 80.5871 9.09091 79.5455 9.09091H20.4545C17.3295 9.09091 14.6544 10.2036 12.429 12.429C10.2036 14.6544 9.09091 17.3295 9.09091 20.4545V79.5455C9.09091 82.6705 10.2036 85.3456 12.429 87.571C14.6544 89.7964 17.3295 90.9091 20.4545 90.9091H79.5455C82.6705 90.9091 85.3456 89.7964 87.571 87.571C89.7964 85.3456 90.9091 82.6705 90.9091 79.5455V70.5966C90.9091 69.9811 91.1222 69.4602 91.5483 69.0341L96.0938 64.4886C96.804 63.7784 97.6326 63.6127 98.5795 63.9915C99.5265 64.3703 100 65.0568 100 66.0511ZM93.1818 13.6364L113.636 34.0909L65.9091 81.8182H45.4545V61.3636L93.1818 13.6364ZM124.716 23.0114L118.182 29.5455L97.7273 9.09091L104.261 2.55682C105.587 1.23106 107.197 0.568182 109.091 0.568182C110.985 0.568182 112.595 1.23106 113.92 2.55682L124.716 13.3523C126.042 14.678 126.705 16.2879 126.705 18.1818C126.705 20.0758 126.042 21.6856 124.716 23.0114Z" fill="#252528"/>
</svg>
