<svg width="50" height="54" viewBox="0 0 50 54" fill="none" xmlns="http://www.w3.org/2000/svg">
<path d="M17.1681 7.73624L20.5638 33.2268L20.7359 34.5187L21.9392 34.018L45.3883 24.2618C46.7083 29.7726 46.0204 35.7841 43.0055 41.0803C36.7855 52.0063 23.0226 55.7388 12.2642 49.4395C1.49765 43.1352 -2.20176 29.1602 4.02274 18.2262C7.03535 12.9343 11.8162 9.33112 17.1681 7.73624Z" stroke="black" stroke-width="2"/>
<path d="M26.127 0.5L27.6199 10.9507" stroke="black" stroke-width="2"/>
<path d="M40.3099 1.99219L35.8311 11.6964" stroke="black" stroke-width="2"/>
<path d="M48.5212 12.4434L39.5635 17.6687" stroke="black" stroke-width="2"/>
<path d="M13.1829 27.7474C13.1829 28.6381 12.4609 29.3601 11.5702 29.3601C10.6795 29.3601 9.95752 28.6381 9.95752 27.7474C9.95752 26.8568 10.6795 26.1348 11.5702 26.1348C12.4609 26.1348 13.1829 26.8568 13.1829 27.7474Z" stroke="black" stroke-width="2"/>
</svg>
