<svg width="17" height="19" viewBox="0 0 17 19" fill="none" xmlns="http://www.w3.org/2000/svg">
<path d="M5.81911 4.30721L7.75746 12.0606L7.82614 12.3353L8.09022 12.2332L14.2539 9.84806C14.6955 11.5903 14.4863 13.4995 13.5205 15.179C11.5566 18.594 7.20779 19.7634 3.80712 17.7923C0.405953 15.8209 -0.760126 11.4537 1.20415 8.03805C2.17925 6.34249 4.06589 4.82179 5.81911 4.30721Z" stroke="white" stroke-width="0.5"/>
<path d="M8.45459 1L9.02083 4.41084" stroke="white"/>
<path d="M13.2588 1.56836L11.7466 4.67517" stroke="white"/>
<path d="M16.1698 4.97852L13.1821 6.69895" stroke="white"/>
<path d="M3.64184 11.8011C4.11093 11.8011 4.4912 11.4194 4.4912 10.9484C4.4912 10.4775 4.11093 10.0957 3.64184 10.0957C3.17275 10.0957 2.79248 10.4775 2.79248 10.9484C2.79248 11.4194 3.17275 11.8011 3.64184 11.8011Z" fill="white"/>
</svg>
