<svg width="48" height="48" viewBox="0 0 48 48" fill="none" xmlns="http://www.w3.org/2000/svg">
<path fill-rule="evenodd" clip-rule="evenodd" d="M21.25 5.00015C16.9402 5.00015 12.807 6.71219 9.75951 9.75966C6.71205 12.8071 5 16.9404 5 21.2501C5 25.5599 6.71205 29.6932 9.75951 32.7406C12.807 35.7881 16.9402 37.5001 21.25 37.5001C25.5598 37.5001 29.693 35.7881 32.7405 32.7406C35.788 29.6932 37.5 25.5599 37.5 21.2501C37.5 16.9404 35.788 12.8071 32.7405 9.75966C29.693 6.71219 25.5598 5.00015 21.25 5.00015ZM4.79217e-08 21.2501C0.000288729 17.8616 0.810911 14.5223 2.36423 11.5108C3.91756 8.49927 6.16854 5.90288 8.92938 3.93824C11.6902 1.97359 14.8809 0.69767 18.2351 0.216916C21.5894 -0.263838 25.0099 0.0645189 28.2115 1.17459C31.413 2.28466 34.3026 4.14426 36.6393 6.59824C38.976 9.05221 40.6919 12.0294 41.644 15.2814C42.5961 18.5335 42.7566 21.966 42.1123 25.2927C41.4679 28.6194 40.0374 31.7438 37.94 34.4051L47.07 43.5351C47.5254 44.0067 47.7774 44.6382 47.7717 45.2936C47.766 45.9491 47.5031 46.5762 47.0395 47.0397C46.576 47.5032 45.949 47.7661 45.2935 47.7718C44.638 47.7775 44.0065 47.5255 43.535 47.0701L34.405 37.9401C31.2715 40.4101 27.506 41.9481 23.5393 42.3779C19.5726 42.8077 15.5651 42.1121 11.9752 40.3707C8.38542 38.6293 5.35839 35.9124 3.24058 32.5309C1.12277 29.1494 -0.000267858 25.2401 4.79217e-08 21.2501ZM18.75 12.5001C18.75 11.8371 19.0134 11.2012 19.4822 10.7324C19.9511 10.2635 20.587 10.0001 21.25 10.0001C24.2337 10.0001 27.0952 11.1854 29.205 13.2952C31.3147 15.405 32.5 18.2665 32.5 21.2501C32.5 21.9132 32.2366 22.5491 31.7678 23.0179C31.2989 23.4868 30.663 23.7501 30 23.7501C29.337 23.7501 28.7011 23.4868 28.2322 23.0179C27.7634 22.5491 27.5 21.9132 27.5 21.2501C27.5 19.5925 26.8415 18.0028 25.6694 16.8307C24.4973 15.6586 22.9076 15.0001 21.25 15.0001C20.587 15.0001 19.9511 14.7368 19.4822 14.2679C19.0134 13.7991 18.75 13.1632 18.75 12.5001Z" fill="#252528"/>
</svg>
