<?xml version="1.0" encoding="utf-8"?>
<!-- Generator: Adobe Illustrator 27.9.0, SVG Export Plug-In . SVG Version: 6.00 Build 0)  -->
<svg version="1.1" id="_レイヤー_1" xmlns="http://www.w3.org/2000/svg" xmlns:xlink="http://www.w3.org/1999/xlink" x="0px"
	 y="0px" viewBox="0 0 15.3 16.6" style="enable-background:new 0 0 15.3 16.6;" xml:space="preserve">
<style type="text/css">
	.st0{fill-rule:evenodd;clip-rule:evenodd;fill:#252528;}
	.st1{fill:none;stroke:#252528;}
	.st2{fill:#FFFFFF;}
</style>
<path class="st0" d="M5.5,2.7l1,7.5l7-2.9c0.5,1.7,0.3,3.6-0.6,5.3c-1.8,3.2-5.9,4.3-9.1,2.5c-3.2-1.9-4.3-6-2.5-9.2
	C2.2,4.2,3.8,3.1,5.5,2.7z"/>
<path class="st1" d="M7.5,0.3l0.6,3.3"/>
<path class="st1" d="M12.3,1l-1.8,2.8"/>
<path class="st1" d="M14.7,4.8l-3.2,1"/>
<path class="st2" d="M3.7,9.4c0.4,0,0.8-0.3,0.8-0.8S4.1,7.9,3.7,7.9S2.9,8.2,2.9,8.7S3.3,9.4,3.7,9.4z"/>
<path class="st2" d="M3.6,9.5c0.4,0,0.8-0.3,0.8-0.8c0-0.4-0.3-0.8-0.8-0.8S2.8,8.3,2.8,8.7C2.8,9.1,3.2,9.5,3.6,9.5z"/>
</svg>
