<svg width="76" height="76" viewBox="0 0 76 76" fill="none" xmlns="http://www.w3.org/2000/svg">
<path fill-rule="evenodd" clip-rule="evenodd" d="M15.4998 31.7501C15.4998 31.7501 17.1998 31.5209 19.6665 30.8626C26.1707 29.1271 37.9998 24.4167 37.9998 13.0876C37.9998 11.4346 37.6742 9.79772 37.0417 8.27054C36.4091 6.74335 35.4819 5.35572 34.313 4.18686C33.1442 3.018 31.7565 2.09081 30.2294 1.45823C28.7022 0.825651 27.0653 0.500065 25.4123 0.500065H13.0873C11.4208 0.478624 9.76665 0.788344 8.22079 1.41125C6.67494 2.03416 5.26817 2.95786 4.08212 4.12875C2.89607 5.29964 1.95435 6.6944 1.31161 8.23212C0.668865 9.76983 0.337891 11.4199 0.337891 13.0865C0.337891 14.7532 0.668865 16.4032 1.31161 17.9409C1.95435 19.4786 2.89607 20.8734 4.08212 22.0443C5.26817 23.2152 6.67494 24.1389 8.22079 24.7618C9.76665 25.3847 11.4208 25.6944 13.0873 25.673H15.4998V31.7501ZM19.6665 21.5063H13.0873C11.9705 21.5239 10.8613 21.3191 9.82436 20.9038C8.78743 20.4886 7.84348 19.8712 7.04746 19.0876C6.25145 18.304 5.61928 17.3699 5.18777 16.3396C4.75627 15.3093 4.53404 14.2035 4.53404 13.0865C4.53404 11.9695 4.75627 10.8637 5.18777 9.83344C5.61928 8.80317 6.25145 7.86904 7.04746 7.08545C7.84348 6.30186 8.78743 5.68446 9.82436 5.26921C10.8613 4.85396 11.9705 4.64916 13.0873 4.66673H25.4123C26.5182 4.66673 27.6132 4.88454 28.6348 5.30773C29.6565 5.73092 30.5848 6.35119 31.3668 7.13314C32.1487 7.91508 32.769 8.84339 33.1922 9.86505C33.6153 10.8867 33.8332 11.9817 33.8332 13.0876C33.8332 18.4688 30.0665 22.0521 24.9394 24.5251C23.2377 25.3336 21.4745 26.0058 19.6665 26.5355V21.5063ZM18.2082 54.6667C22.8123 54.6667 26.5415 50.9376 26.5415 46.3334C26.5415 41.7292 22.8123 38.0001 18.2082 38.0001C13.604 38.0001 9.87483 41.7292 9.87483 46.3334C9.87483 50.9376 13.604 54.6667 18.2082 54.6667ZM22.3748 46.3334C22.3748 47.4385 21.9358 48.4983 21.1544 49.2797C20.373 50.0611 19.3132 50.5001 18.2082 50.5001C17.1031 50.5001 16.0433 50.0611 15.2619 49.2797C14.4805 48.4983 14.0415 47.4385 14.0415 46.3334C14.0415 45.2283 14.4805 44.1685 15.2619 43.3871C16.0433 42.6057 17.1031 42.1667 18.2082 42.1667C19.3132 42.1667 20.373 42.6057 21.1544 43.3871C21.9358 44.1685 22.3748 45.2283 22.3748 46.3334ZM0.499826 67.723C0.499826 61.8105 12.2977 58.8334 18.2082 58.8334C24.1186 58.8334 35.9165 61.8126 35.9165 67.723V75.5001H0.499826V67.723ZM4.66649 71.3334V67.723C4.66649 67.7021 4.66649 67.6605 4.72066 67.5563C4.78733 67.4271 4.93941 67.2001 5.26857 66.8959C5.95399 66.2605 7.10191 65.5667 8.69149 64.9271C11.879 63.6459 15.7748 63.0001 18.2082 63.0001C20.6394 63.0001 24.5394 63.6459 27.7248 64.9271C29.3123 65.5667 30.4623 66.2605 31.1477 66.8959C31.4769 67.2001 31.629 67.4271 31.6957 67.5542C31.7498 67.6584 31.7498 67.7042 31.7498 67.7209V71.3334H4.66649ZM66.1248 46.3334C66.1248 50.9376 62.3957 54.6667 57.7915 54.6667C53.1873 54.6667 49.4582 50.9376 49.4582 46.3334C49.4582 41.7292 53.1873 38.0001 57.7915 38.0001C62.3957 38.0001 66.1248 41.7292 66.1248 46.3334ZM57.7915 50.5001C58.8966 50.5001 59.9564 50.0611 60.7378 49.2797C61.5192 48.4983 61.9582 47.4385 61.9582 46.3334C61.9582 45.2283 61.5192 44.1685 60.7378 43.3871C59.9564 42.6057 58.8966 42.1667 57.7915 42.1667C56.6864 42.1667 55.6266 42.6057 54.8452 43.3871C54.0638 44.1685 53.6248 45.2283 53.6248 46.3334C53.6248 47.4385 54.0638 48.4983 54.8452 49.2797C55.6266 50.0611 56.6864 50.5001 57.7915 50.5001ZM40.0832 67.723C40.0832 61.8105 51.8811 58.8334 57.7915 58.8334C63.7019 58.8334 75.4998 61.8126 75.4998 67.723V75.5001H40.0832V67.723ZM44.2498 71.3334V67.723C44.2498 67.7021 44.2498 67.6605 44.304 67.5563C44.3707 67.4271 44.5227 67.2001 44.8498 66.8959C45.5373 66.2605 46.6873 65.5667 48.2748 64.9271C51.4623 63.6459 55.3582 63.0001 57.7915 63.0001C60.2227 63.0001 64.1227 63.6459 67.3082 64.9271C68.8957 65.5667 70.0457 66.2605 70.7332 66.8959C71.0602 67.2001 71.2123 67.4271 71.279 67.5542C71.3332 67.6584 71.3332 67.7042 71.3332 67.7209V71.3334H44.2498ZM57.9998 32.8042C60.4373 33.5709 62.1665 33.8334 62.1665 33.8334V27.7563H62.9123C64.5788 27.7778 66.233 27.468 67.7789 26.8451C69.3247 26.2222 70.7315 25.2985 71.9175 24.1276C73.1036 22.9567 74.0453 21.562 74.688 20.0243C75.3308 18.4865 75.6618 16.8365 75.6618 15.1699C75.6618 13.5032 75.3308 11.8532 74.688 10.3155C74.0453 8.77773 73.1036 7.38297 71.9175 6.21208C70.7315 5.04119 69.3247 4.1175 67.7789 3.49459C66.233 2.87168 64.5788 2.56196 62.9123 2.5834H54.754C51.4156 2.5834 48.2139 3.90958 45.8533 6.27019C43.4927 8.63081 42.1665 11.8325 42.1665 15.1709C42.1665 26.2042 52.1394 30.9626 57.9998 32.8042ZM62.9123 23.5896H57.9998V28.4084C56.677 27.9359 55.3914 27.3649 54.154 26.7001C49.8123 24.3438 46.3332 20.8084 46.3332 15.1688C46.3337 12.9358 47.2211 10.7945 48.8003 9.21573C50.3794 7.63697 52.521 6.75006 54.754 6.75006H62.9123C64.0292 6.7325 65.1383 6.9373 66.1753 7.35255C67.2122 7.76779 68.1562 8.38519 68.9522 9.16878C69.7482 9.95238 70.3804 10.8865 70.8119 11.9168C71.2434 12.947 71.4656 14.0529 71.4656 15.1699C71.4656 16.2868 71.2434 17.3927 70.8119 18.4229C70.3804 19.4532 69.7482 20.3873 68.9522 21.1709C68.1562 21.9545 67.2122 22.5719 66.1753 22.9872C65.1383 23.4024 64.0292 23.6072 62.9123 23.5896Z" fill="#252528"/>
</svg>
