<svg width="100" height="86" viewBox="0 0 100 86" fill="none" xmlns="http://www.w3.org/2000/svg">
<path d="M21.4284 82.429H42.857M32.1427 82.429V68.1433M3.57129 32.429V61.0004C3.57129 62.8948 4.32384 64.7116 5.66338 66.0512C7.00293 67.3907 8.81974 68.1433 10.7141 68.1433H53.5713C55.4657 68.1433 57.2825 67.3907 58.622 66.0512C59.9616 64.7116 60.7141 62.8948 60.7141 61.0004V32.429C60.7141 30.5346 59.9616 28.7178 58.622 27.3782C57.2825 26.0387 55.4657 25.2861 53.5713 25.2861H10.7141C8.81974 25.2861 7.00293 26.0387 5.66338 27.3782C4.32384 28.7178 3.57129 30.5346 3.57129 32.429Z" stroke="#252528" stroke-width="7.14286" stroke-linecap="round" stroke-linejoin="round"/>
<path d="M53.5713 11.0003V7.42885C53.5713 6.48165 53.9476 5.57324 54.6173 4.90347C55.2871 4.2337 56.1955 3.85742 57.1427 3.85742H92.857C93.8042 3.85742 94.7126 4.2337 95.3824 4.90347C96.0522 5.57324 96.4284 6.48165 96.4284 7.42885V78.8574C96.4284 79.8046 96.0522 80.713 95.3824 81.3828C94.7126 82.0526 93.8042 82.4288 92.857 82.4288H64.2856" stroke="#252528" stroke-width="7.14286" stroke-linecap="round" stroke-linejoin="round"/>
<path d="M75 36.0004H96.4286M81.25 20.8218C81.0132 20.8218 80.7861 20.7278 80.6187 20.5603C80.4512 20.3929 80.3571 20.1658 80.3571 19.929C80.3571 19.6922 80.4512 19.4651 80.6187 19.2976C80.7861 19.1302 81.0132 19.0361 81.25 19.0361C81.4868 19.0361 81.7139 19.1302 81.8813 19.2976C82.0488 19.4651 82.1429 19.6922 82.1429 19.929C82.1429 20.1658 82.0488 20.3929 81.8813 20.5603C81.7139 20.7278 81.4868 20.8218 81.25 20.8218Z" stroke="#252528" stroke-width="7.14286" stroke-linecap="round" stroke-linejoin="round"/>
</svg>
